# xmcd
#
# Track frame offsets:
#	150
#	19338
#	39899
#	80950
#	98955
#	112827
#	135918
#	153321
#	184022
#	206352
#	232030
#
# Disc length: 3310 seconds
#
# Revision: 0
# Processed by: cddbd v1.5PL3 Copyright (c) Steve Scherf et al.
# Submitted via: dBpowerAMP V4.0
#
DISCID=840cec0b
DTITLE=Harry Lucas - JunkYard Dog
DYEAR=2001
DGENRE=Blues
TTITLE0=Phone Booth
TTITLE1=Big Rear Window
TTITLE2=Mind to Give Up Livin'
TTITLE3=Junk Yard Dog
TTITLE4=Mistreated
TTITLE5=So Good
TTITLE6=Lay It Down
TTITLE7=Away From You
TTITLE8=Nightcrawler
TTITLE9=Timeclock
TTITLE10=Everything's Alright
EXTD=This is an album from a great local blues band out of Grand Rapids, MI, Waypo
EXTT0=
EXTT1=
EXTT2=
EXTT3=
EXTT4=
EXTT5=
EXTT6=
EXTT7=
EXTT8=
EXTT9=
EXTT10=
PLAYORDER=
